<svg id="Layer_1" enable-background="new 0 0 64 64" height="512" viewBox="0 0 64 64" width="512" xmlns="http://www.w3.org/2000/svg"><path d="m56 16h-14-4-30c-1.654 0-3 1.346-3 3v36c0 .552.448 1 1 1h18.764l1.789.895c.138.069.292.105.447.105h10c.155 0 .309-.036.447-.105l1.789-.895h18.764c.552 0 1-.448 1-1v-36c0-1.654-1.346-3-3-3z" fill="#c8c6cc"/><path d="m54 20h-44c-.552 0-1 .448-1 1v30c0 .552.448 1 1 1h44c.552 0 1-.448 1-1v-30c0-.552-.448-1-1-1z" fill="#fff"/><path d="m54 52h-44c-.552 0-1-.448-1-1v-30c0-.552.448-1 1-1h44c.552 0 1 .448 1 1v30c0 .552-.448 1-1 1zm-43-2h42v-28h-42z" fill="#8b8992"/><path d="m63 54h-24c-.155 0-.309.036-.447.105l-1.789.895h-9.528l-1.789-.895c-.138-.069-.292-.105-.447-.105h-24c-.552 0-1 .448-1 1v4c0 1.654 1.346 3 3 3h58c1.654 0 3-1.346 3-3v-4c0-.552-.448-1-1-1z" fill="#8b8992"/><circle cx="14" cy="25" fill="#ff3c62" r="1"/><circle cx="22" cy="25" fill="#6dd7a7" r="1"/><circle cx="18" cy="25" fill="#ffb74f" r="1"/><path d="m46 10h-16c-.552 0-1 .448-1 1v4c0 .552.448 1 1 1h16c.552 0 1-.448 1-1v-4c0-.552-.448-1-1-1z" fill="#006ef5"/><path d="m46 22h-16c-.552 0-1 .448-1 1v4c0 .552.448 1 1 1h16c.552 0 1-.448 1-1v-4c0-.552-.448-1-1-1z" fill="#006ef5"/><circle cx="20" cy="41" fill="#ffb74f" r="5"/><path d="m38 34c-.552 0-1 .448-1 1v5h-12.101c-.465-2.279-2.484-4-4.899-4-2.757 0-5 2.243-5 5s2.243 5 5 5c2.414 0 4.434-1.721 4.899-4h13.101c.552 0 1-.448 1-1v-6c0-.552-.448-1-1-1zm-18 10c-1.654 0-3-1.346-3-3s1.346-3 3-3 3 1.346 3 3-1.346 3-3 3z" fill="#57555c"/><path d="m47 14h-18c-1.103 0-2 .897-2 2v6c0 1.103.897 2 2 2h18c1.103 0 2-.897 2-2v-6c0-1.103-.897-2-2-2z" fill="#00a6ff"/><path d="m47 2h-18c-1.103 0-2 .897-2 2v6c0 1.103.897 2 2 2h18c1.103 0 2-.897 2-2v-6c0-1.103-.897-2-2-2z" fill="#00a6ff"/><path d="m47 26h-18c-1.103 0-2 .897-2 2v6c0 1.103.897 2 2 2h18c1.103 0 2-.897 2-2v-6c0-1.103-.897-2-2-2z" fill="#00a6ff"/><g fill="#ffb74f"><path d="m33 8h-1c-.552 0-1-.448-1-1s.448-1 1-1h1c.552 0 1 .448 1 1s-.448 1-1 1z"/><path d="m33 20h-1c-.552 0-1-.448-1-1s.448-1 1-1h1c.552 0 1 .448 1 1s-.448 1-1 1z"/><path d="m33 32h-1c-.552 0-1-.448-1-1s.448-1 1-1h1c.552 0 1 .448 1 1s-.448 1-1 1z"/></g><circle cx="20" cy="41" fill="#57555c" r="1"/></svg>